<?xml version="1.0" encoding="UTF-8" standalone="no"?>
<!-- Created with Inkscape (http://www.inkscape.org/) -->

<svg
   width="109.43117mm"
   height="1.6974893mm"
   viewBox="0 0 109.43117 1.6974892"
   version="1.1"
   id="svg5"
   inkscape:version="1.4.2 (ebf0e940d0, 2025-05-08)"
   sodipodi:docname="athena_label.svg"
   inkscape:export-filename="/home/alvaro/Desktop/AcheronProject/Athena/resources/athena_label_no_outline.png"
   inkscape:export-xdpi="5000"
   inkscape:export-ydpi="5000"
   xmlns:inkscape="http://www.inkscape.org/namespaces/inkscape"
   xmlns:sodipodi="http://sodipodi.sourceforge.net/DTD/sodipodi-0.dtd"
   xmlns="http://www.w3.org/2000/svg"
   xmlns:svg="http://www.w3.org/2000/svg">
  <sodipodi:namedview
     id="namedview7"
     pagecolor="#ffffff"
     bordercolor="#666666"
     borderopacity="1.0"
     inkscape:pageshadow="2"
     inkscape:pageopacity="0.0"
     inkscape:pagecheckerboard="0"
     inkscape:document-units="mm"
     showgrid="false"
     inkscape:zoom="1.2810466"
     inkscape:cx="293.11971"
     inkscape:cy="164.31877"
     inkscape:window-width="1920"
     inkscape:window-height="1011"
     inkscape:window-x="0"
     inkscape:window-y="0"
     inkscape:window-maximized="1"
     inkscape:current-layer="layer1"
     inkscape:showpageshadow="2"
     inkscape:deskcolor="#d1d1d1" />
  <defs
     id="defs2">
    <rect
       x="-196.86472"
       y="554.54724"
       width="1358.4165"
       height="266.30865"
       id="rect1881" />
    <rect
       x="-196.86472"
       y="554.54724"
       width="1358.4165"
       height="266.30865"
       id="rect16" />
    <rect
       x="-196.86472"
       y="554.54724"
       width="3157.2146"
       height="90.92585"
       id="rect131" />
    <rect
       x="-196.86472"
       y="554.54724"
       width="1358.4165"
       height="266.30865"
       id="rect6377" />
    <rect
       x="-196.86472"
       y="554.54724"
       width="1358.4165"
       height="266.30865"
       id="rect31" />
    <rect
       x="-196.86472"
       y="554.54724"
       width="3157.2146"
       height="90.92585"
       id="rect1" />
  </defs>
  <g
     inkscape:label="Layer 1"
     inkscape:groupmode="layer"
     id="layer1"
     transform="translate(48.452038,-76.141664)">
    <text
       xml:space="preserve"
       transform="matrix(0.04592775,0,0,0.04592775,-57.17472,41.041442)"
       id="text129"
       style="font-style:normal;font-weight:normal;font-size:40px;line-height:1.25;font-family:sans-serif;text-align:center;white-space:pre;shape-inside:url(#rect131);display:inline;fill:#000000;fill-opacity:1;stroke:none;stroke-width:6.98536;stroke-linecap:round;stroke-linejoin:round;stroke-miterlimit:4;stroke-dasharray:none;stroke-opacity:1"
       x="407.4794"
       y="0"><tspan
         x="189.92181"
         y="589.94687"
         id="tspan2"><tspan
           dx="0 0 0 0 0 0 0 0 0 0 0 0 0 0 0 0 0 0 0 0 0 0 0 0 0 0 0 0 0 0 0 0 0 0 0 0 0 0 0 0 0 0 0 0 0 0 0 0 0 0 0 0 0 0 0 0 0 0 0 0 0 0 0 0 0 -0.0001373291 0 0 0.0001373291"
           style="font-family:Pirulen;-inkscape-font-specification:Pirulen"
           id="tspan1">ATHENA rev. gamma RC3 | designed by gondolindrim for the acheronproject</tspan></tspan></text>
    <path
       style="font-size:40px;line-height:1.25;font-family:Pirulen;-inkscape-font-specification:Pirulen;text-align:center;white-space:pre;stroke-width:8.70933148;stroke-linecap:round;stroke-linejoin:round;stroke-dasharray:none;stroke:#000000;stroke-opacity:1"
       d="m 231.12181,589.94687 -18.6,-28.16 h -3.88 l -18.72,28.16 h 5.92 l 14.76,-22.67999 14.52,22.67999 z m 14.08002,0 v -24 h 14.36 v -4.16 h -34.44 v 4.16 h 14.76 v 24 z m 51.60004,0 v -28.16 h -5.32 v 11.2 h -23.04 v -11.2 h -5.32 v 28.16 h 5.32 v -12.79999 h 23.04 v 12.79999 z m 34.16,0 v -4.16 h -23.64 v -8.63999 h 22.44 v -4.16001 h -22.44 v -7.04 h 23.64 v -4.16 h -28.96 v 28.16 z m 41.8,0 v -28.16 h -4.64 v 20.92 l -28.04,-20.92 h -4.6 v 28.16 h 4.64 v -21.91999 l 30.04,21.91999 z m 43.80001,0 -18.6,-28.16 h -3.88 l -18.72,28.16 h 5.92 l 14.76,-22.67999 14.52,22.67999 z m 55.04002,0 -6.64,-12.64 c 5,-0.48 6.96,-3.08 6.96,-6.72 v -2 c 0,-4.04 -2.44,-6.8 -8.84,-6.8 h -23.92 v 28.16 h 5.32 v -12.55999 h 14.84 l 6.6,12.55999 z m -5,-19.32 c 0,1.68 -1.12,2.6 -3.52,2.6 h -18.6 v -7.28 h 18.6 c 2.4,0 3.52,0.92 3.52,2.6 z m 38.56003,19.32 v -4.16 h -23.64 v -8.63999 h 22.44 v -4.16001 h -22.44 v -7.04 h 23.64 v -4.16 h -28.96 v 28.16 z m 24.51998,0 18.6,-28.16 h -5.88 l -14.56,22.68 -14.72,-22.68 h -6.04 l 18.72,28.16 z m 21.72004,0 v -5.2 h -6.28 v 5.2 z m 47.6,0 c 6.68,0 10.04,-2 10.04,-6 v -9.36 h -5.32 v 9.36 c 0,1.24 -1.56,1.84 -4.72,1.84 h -12.44 c -3.16,0 -4.72,-0.63999 -4.72,-1.92 v -16 c 0,-1.28 1.56,-1.92 4.72,-1.92 h 22.04 v -4.16 h -22.04 c -6.68,0 -10.04,2.04 -10.04,6.08 v 16 c 0,4.04001 3.36,6.08 10.04,6.08 z m 52.15999,0 -18.6,-28.16 h -3.88 l -18.72,28.16 h 5.92 l 14.76,-22.67999 14.52,22.67999 z m 45.48005,0 v -28.16 h -4.56 l -16.64,23 -16.72,-23 h -4.96 v 28.16 h 4.92 v -19.67999 l 14.36,19.67999 h 4.36 l 14.32,-19.72 v 19.72 z m 48.07995,0 v -28.16 h -4.56 l -16.64,23 -16.72,-23 h -4.96 v 28.16 h 4.92 v -19.67999 l 14.36,19.67999 h 4.36 l 14.32,-19.72 v 19.72 z m 43.80002,0 -18.6,-28.16 h -3.88 l -18.72,28.16 h 5.92 l 14.76,-22.67999 14.52,22.67999 z m 55.04001,0 -6.64,-12.64 c 5,-0.48 6.96,-3.08 6.96,-6.72 v -2 c 0,-4.04 -2.44,-6.8 -8.84,-6.8 h -23.92 v 28.16 h 5.32 v -12.55999 h 14.84 l 6.6,12.55999 z m -5,-19.32 c 0,1.68 -1.12,2.6 -3.52,2.6 h -18.6 v -7.28 h 18.6 c 2.4,0 3.52,0.92 3.52,2.6 z m 40.92004,19.32 v -4.16 h -22.68 c -2.4,0 -3.52,-0.92 -3.52,-2.6 v -14.64 c 0,-1.68 1.12,-2.6 3.52,-2.6 h 22.68 v -4.16 h -22.68 c -6.4,0 -8.84,2.76 -8.84,6.8 v 14.56001 c 0,4.03999 2.44,6.79999 8.84,6.79999 z m 22.91999,0 c 6.96,0 8.92,-2.88 8.92,-6.08 v -4.59999 c 0,-2.72001 -1.56,-4.04001 -3.68,-4.60001 2,-0.39999 3.32,-2.24 3.32,-4.68 v -2.12 c 0,-3.76 -2.4,-6.08 -8.64,-6.08 h -18.8 v 4.16 h 18.8 c 2.48,0 3.32,0.64 3.32,2.20001 v 2.43999 c 0,1.56001 -0.84,2.2 -3.32,2.2 h -17.6 v 4.16 h 17.68 c 2.12,0 3.6,0.64 3.6,2.4 v 3.52 c 0,2.28001 -1.48,2.92 -3.6,2.92 h -18.88 v 4.16 z m 39.63998,4.4 v -36.96 h -3.72 v 36.96 z m 53.00005,-4.4 c 7.95997,0 10.39997,-2.76 10.39997,-8.03999 v -11.80001 c 0,-5.56 -2.44,-8.32 -10.39997,-8.32 h -25.8 v 28.16 z m 5.07997,-8.08 c 0,3 -1.11997,3.92 -5.07997,3.92 h -20.48 v -19.84 h 20.48 c 3.96,0 5.07997,0.92 5.07997,4.16 z m 39.28,8.08 v -4.16 h -23.64 v -8.63999 h 22.44 v -4.16001 h -22.44 v -7.04 h 23.64 v -4.16 h -28.96 v 28.16 z m 29.36,0 c 6.4,0 8.84,-2.76 8.84,-6.79999 v -3.48001 c 0,-4.04 -2.44,-6.8 -8.84,-6.8 h -16.56 c -2.4,0 -3.52,-0.92 -3.52,-2.59999 v -1.72001 c 0,-1.68 1.12,-2.6 3.52,-2.6 h 23.84 v -4.16 h -23.84 c -6.4,0 -8.84,2.76 -8.84,6.8 v 1.64 c 0,4.04001 2.44,6.80001 8.84,6.80001 h 16.56 c 2.4,0 3.52,0.91999 3.52,2.59999 v 3.56 c 0,1.68 -1.12,2.6 -3.52,2.6 h -24.48 v 4.16 z m 18.7201,0 v -28.16 h -5.32 v 28.16 z m 27.6799,0 c 6.68,0 10.04,-2 10.04,-6 v -9.36 h -5.32 v 9.36 c 0,1.24 -1.56,1.84 -4.72,1.84 h -12.44 c -3.16,0 -4.72,-0.63999 -4.72,-1.92 v -16 c 0,-1.28 1.56,-1.92 4.72,-1.92 h 22.04 v -4.16 h -22.04 c -6.68,0 -10.04,2.04 -10.04,6.08 v 16 c 0,4.04001 3.36,6.08 10.04,6.08 z m 52.24,0 v -28.16 h -4.64 v 20.92 l -28.04,-20.92 h -4.6 v 28.16 h 4.64 v -21.91999 l 30.04,21.91999 z m 34.1601,0 v -4.16 h -23.64 v -8.63999 h 22.44 v -4.16001 h -22.44 v -7.04 h 23.64 v -4.16 h -28.96 v 28.16 z m 30.32,0 c 7.96,0 10.4,-2.76 10.4,-8.03999 v -11.80001 c 0,-5.56 -2.44,-8.32 -10.4,-8.32 h -25.8 v 28.16 z m 5.08,-8.08 c 0,3 -1.12,3.92 -5.08,3.92 h -20.48 v -19.84 h 20.48 c 3.96,0 5.08,0.92 5.08,4.16 z m 53.32,8.08 c 6.96,0 8.92,-2.88 8.92,-6.08 v -4.12 c 0,-2.71999 -1.56,-4.04 -3.68,-4.59999 2,-0.40001 3.32,-2.24 3.32,-4.68001 v -2.6 c 0,-3.76 -2.4,-6.08 -8.64,-6.08 h -22.92 v 28.16 z m 3.6,-7.08 c 0,2.28001 -1.48,2.92 -3.6,2.92 h -17.68 v -8.36 h 17.68 c 2.12,0 3.6,0.64 3.6,2.4 z m -0.36,-11.8 c 0,1.56 -0.84,2.20001 -3.32,2.20001 h -17.6 v -7.32001 h 17.6 c 2.48,0 3.32,0.64 3.32,2.20001 z m 29.68,18.88 v -11.44 l 17.96,-16.72 h -6.72 l -13.92,12.88 -13.92,-12.88 h -6.8 l 18.08,16.72 v 11.44 z m 62.8401,0 c 6.68,0 10.04,-2 10.04,-6 v -9.36 h -5.32 v 9.36 c 0,1.24 -1.56,1.84 -4.72,1.84 h -12.44 c -3.16,0 -4.72,-0.63999 -4.72,-1.92 v -16 c 0,-1.28 1.56,-1.92 4.72,-1.92 h 22.04 v -4.16 h -22.04 c -6.68,0 -10.04,2.04 -10.04,6.08 v 16 c 0,4.04001 3.36,6.08 10.04,6.08 z m 42.2,0 c 6.4,0 8.84,-2.76 8.84,-6.79999 v -14.56001 c 0,-4.04 -2.44,-6.8 -8.84,-6.8 h -18.6 c -6.4,0 -8.84,2.76 -8.84,6.8 v 14.56001 c 0,4.03999 2.44,6.79999 8.84,6.79999 z m 3.52,-6.76 c 0,1.68 -1.12,2.6 -3.52,2.6 h -18.6 c -2.4,0 -3.52,-0.92 -3.52,-2.6 v -14.64 c 0,-1.68 1.12,-2.6 3.52,-2.6 h 18.6 c 2.4,0 3.52,0.92 3.52,2.6 z m 47.5999,6.76 v -28.16 h -4.64 v 20.92 l -28.04,-20.92 h -4.6 v 28.16 h 4.64 v -21.91999 l 30.04,21.91999 z m 31,0 c 7.96,0 10.4,-2.76 10.4,-8.03999 v -11.80001 c 0,-5.56 -2.44,-8.32 -10.4,-8.32 h -25.8 v 28.16 z m 5.08,-8.08 c 0,3 -1.12,3.92 -5.08,3.92 h -20.48 v -19.84 h 20.48 c 3.96,0 5.08,0.92 5.08,4.16 z m 37.5601,8.08 c 6.4,0 8.84,-2.76 8.84,-6.79999 v -14.56001 c 0,-4.04 -2.44,-6.8 -8.84,-6.8 h -18.6 c -6.4,0 -8.84,2.76 -8.84,6.8 v 14.56001 c 0,4.03999 2.44,6.79999 8.84,6.79999 z m 3.52,-6.76 c 0,1.68 -1.12,2.6 -3.52,2.6 h -18.6 c -2.4,0 -3.52,-0.92 -3.52,-2.6 v -14.64 c 0,-1.68 1.12,-2.6 3.52,-2.6 h 18.6 c 2.4,0 3.52,0.92 3.52,2.6 z m 38.5199,6.76 v -4.16 h -22.84 v -24 h -5.36 v 28.16 z m 9.2401,0 v -28.16 h -5.32 v 28.16 z m 42.68,0 v -28.16 h -4.64 v 20.92 l -28.04,-20.92 h -4.6 v 28.16 h 4.64 v -21.91999 l 30.04,21.91999 z m 31,0 c 7.96,0 10.4,-2.76 10.4,-8.03999 v -11.80001 c 0,-5.56 -2.44,-8.32 -10.4,-8.32 h -25.8 v 28.16 z m 5.08,-8.08 c 0,3 -1.12,3.92 -5.08,3.92 h -20.48 v -19.84 h 20.48 c 3.96,0 5.08,0.92 5.08,4.16 z m 42.7601,8.08 -6.64,-12.64 c 5,-0.48 6.96,-3.08 6.96,-6.72 v -2 c 0,-4.04 -2.44,-6.8 -8.84,-6.8 h -23.92 v 28.16 h 5.32 v -12.55999 h 14.84 l 6.6,12.55999 z m -5,-19.32 c 0,1.68 -1.12,2.6 -3.52,2.6 h -18.6 v -7.28 h 18.6 c 2.4,0 3.52,0.92 3.52,2.6 z m 15.12,19.32 v -28.16 h -5.32 v 28.16 z m 48.2801,0 v -28.16 h -4.56 l -16.64,23 -16.72,-23 h -4.96 v 28.16 h 4.92 v -19.67999 l 14.36,19.67999 h 4.36 l 14.32,-19.72 v 19.72 z m 52.5599,-11.6 v -4.16 h -22.04 v -8.24 h 23.64 v -4.16 h -28.96 v 28.16 h 5.32 v -11.6 z m 31.72,11.6 c 6.4,0 8.84,-2.76 8.84,-6.79999 v -14.56001 c 0,-4.04 -2.44,-6.8 -8.84,-6.8 h -18.6 c -6.4,0 -8.84,2.76 -8.84,6.8 v 14.56001 c 0,4.03999 2.44,6.79999 8.84,6.79999 z m 3.52,-6.76 c 0,1.68 -1.12,2.6 -3.52,2.6 h -18.6 c -2.4,0 -3.52,-0.92 -3.52,-2.6 v -14.64 c 0,-1.68 1.12,-2.6 3.52,-2.6 h 18.6 c 2.4,0 3.52,0.92 3.52,2.6 z m 42.7601,6.76 -6.64,-12.64 c 5,-0.48 6.96,-3.08 6.96,-6.72 v -2 c 0,-4.04 -2.44,-6.8 -8.84,-6.8 h -23.92 v 28.16 h 5.32 v -12.55999 h 14.84 l 6.6,12.55999 z m -5,-19.32 c 0,1.68 -1.12,2.6 -3.52,2.6 h -18.6 v -7.28 h 18.6 c 2.4,0 3.52,0.92 3.52,2.6 z m 48,19.32 v -24 h 14.36 v -4.16 h -34.44 v 4.16 h 14.76 v 24 z m 51.5999,0 v -28.16 h -5.32 v 11.2 h -23.04 v -11.2 h -5.32 v 28.16 h 5.32 v -12.79999 h 23.04 v 12.79999 z m 34.16,0 v -4.16 h -23.64 v -8.63999 h 22.44 v -4.16001 h -22.44 v -7.04 h 23.64 v -4.16 h -28.96 v 28.16 z m 63.12,0 -18.6,-28.16 h -3.88 l -18.72,28.16 h 5.92 l 14.76,-22.67999 14.52,22.67999 z m 33.9201,0 v -4.16 h -22.68 c -2.4,0 -3.52,-0.92 -3.52,-2.6 v -14.64 c 0,-1.68 1.12,-2.6 3.52,-2.6 h 22.68 v -4.16 h -22.68 c -6.4,0 -8.84,2.76 -8.84,6.8 v 14.56001 c 0,4.03999 2.44,6.79999 8.84,6.79999 z m 38.16,0 v -28.16 h -5.32 v 11.2 h -23.04 v -11.2 h -5.32 v 28.16 h 5.32 v -12.79999 h 23.04 v 12.79999 z m 34.16,0 v -4.16 h -23.64 v -8.63999 h 22.44 v -4.16001 h -22.44 v -7.04 h 23.64 v -4.16 h -28.96 v 28.16 z m 36.96,0 -6.64,-12.64 c 5,-0.48 6.96,-3.08 6.96,-6.72 v -2 c 0,-4.04 -2.44,-6.8 -8.84,-6.8 h -23.92 v 28.16 h 5.32 v -12.55999 h 14.84 l 6.6,12.55999 z m -5,-19.32 c 0,1.68 -1.12,2.6 -3.52,2.6 h -18.6 v -7.28 h 18.6 c 2.4,0 3.52,0.92 3.52,2.6 z m 36.8401,19.32 c 6.4,0 8.84,-2.76 8.84,-6.79999 v -14.56001 c 0,-4.04 -2.44,-6.8 -8.84,-6.8 h -18.6 c -6.4,0 -8.84,2.76 -8.84,6.8 v 14.56001 c 0,4.03999 2.44,6.79999 8.84,6.79999 z m 3.52,-6.76 c 0,1.68 -1.12,2.6 -3.52,2.6 h -18.6 c -2.4,0 -3.52,-0.92 -3.52,-2.6 v -14.64 c 0,-1.68 1.12,-2.6 3.52,-2.6 h 18.6 c 2.4,0 3.52,0.92 3.52,2.6 z m 47.6,6.76 v -28.16 h -4.64 v 20.92 l -28.04,-20.92 h -4.6 v 28.16 h 4.64 v -21.91999 l 30.04,21.91999 z m 28.28,-10.4 c 6.4,0 8.84,-2.76 8.84,-6.8 v -4.16 c 0,-4.04 -2.44,-6.8 -8.84,-6.8 h -23.08 v 28.16 h 5.32 v -10.4 z m 3.52,-6.76 c 0,1.68 -1.12,2.60001 -3.52,2.60001 h -17.76 v -9.44001 h 17.76 c 2.4,0 3.52,0.92 3.52,2.6 z m 41.4799,17.16 -6.64,-12.64 c 5,-0.48 6.96,-3.08 6.96,-6.72 v -2 c 0,-4.04 -2.44,-6.8 -8.84,-6.8 h -23.92 v 28.16 h 5.32 v -12.55999 h 14.84 l 6.6,12.55999 z m -5,-19.32 c 0,1.68 -1.12,2.6 -3.52,2.6 h -18.6 v -7.28 h 18.6 c 2.4,0 3.52,0.92 3.52,2.6 z m 36.8401,19.32 c 6.4,0 8.84,-2.76 8.84,-6.79999 v -14.56001 c 0,-4.04 -2.44,-6.8 -8.84,-6.8 h -18.6 c -6.4,0 -8.84,2.76 -8.84,6.8 v 14.56001 c 0,4.03999 2.44,6.79999 8.84,6.79999 z m 3.52,-6.76 c 0,1.68 -1.12,2.6 -3.52,2.6 h -18.6 c -2.4,0 -3.52,-0.92 -3.52,-2.6 v -14.64 c 0,-1.68 1.12,-2.6 3.52,-2.6 h 18.6 c 2.4,0 3.52,0.92 3.52,2.6 z m 15.24,6.76 c 6.24,0 8.8,-2.52 8.8,-6 v -22.16 h -5.32 v 22.16 c 0,1.24 -1.04,1.84 -3.48,1.84 h -7.72 v 4.16 z m 42.8401,0 v -4.16 h -23.64 v -8.63999 h 22.44 v -4.16001 h -22.44 v -7.04 h 23.64 v -4.16 h -28.96 v 28.16 z m 35.84,0 v -4.16 h -22.68 c -2.4,0 -3.52,-0.92 -3.52,-2.6 v -14.64 c 0,-1.68 1.12,-2.6 3.52,-2.6 h 22.68 v -4.16 h -22.68 c -6.4,0 -8.84,2.76 -8.84,6.8 v 14.56001 c 0,4.03999 2.44,6.79999 8.84,6.79999 z m 22.88,0 v -24 h 14.36 v -4.16 h -34.44 v 4.16 h 14.76 v 24 z"
       id="text1"
       transform="matrix(0.04592775,0,0,0.04592775,-57.17472,50.542137)"
       aria-label="ATHENA rev. gamma RC3 | designed by gondolindrim for the acheronproject" />
  </g>
</svg>
