<?xml version="1.0" encoding="UTF-8" standalone="no"?>
<!-- Created with Inkscape (http://www.inkscape.org/) -->

<svg
   width="30.383511mm"
   height="1.4999998mm"
   viewBox="0 0 30.383511 1.4999997"
   version="1.1"
   id="svg5"
   inkscape:version="1.4.2 (ebf0e940d0, 2025-05-08)"
   sodipodi:docname="athena_bowl_joke.svg"
   xmlns:inkscape="http://www.inkscape.org/namespaces/inkscape"
   xmlns:sodipodi="http://sodipodi.sourceforge.net/DTD/sodipodi-0.dtd"
   xmlns="http://www.w3.org/2000/svg"
   xmlns:svg="http://www.w3.org/2000/svg">
  <sodipodi:namedview
     id="namedview7"
     pagecolor="#ffffff"
     bordercolor="#666666"
     borderopacity="1.0"
     inkscape:pageshadow="2"
     inkscape:pageopacity="0.0"
     inkscape:pagecheckerboard="0"
     inkscape:document-units="mm"
     showgrid="false"
     inkscape:zoom="2.5620932"
     inkscape:cx="27.516564"
     inkscape:cy="59.911951"
     inkscape:window-width="1920"
     inkscape:window-height="1011"
     inkscape:window-x="0"
     inkscape:window-y="0"
     inkscape:window-maximized="1"
     inkscape:current-layer="layer1"
     inkscape:showpageshadow="2"
     inkscape:deskcolor="#d1d1d1" />
  <defs
     id="defs2">
    <rect
       x="-196.86472"
       y="554.54724"
       width="1358.4165"
       height="266.30865"
       id="rect1881" />
    <rect
       x="-196.86472"
       y="554.54724"
       width="1358.4165"
       height="266.30865"
       id="rect16" />
  </defs>
  <g
     inkscape:label="Layer 1"
     inkscape:groupmode="layer"
     id="layer1"
     transform="translate(41.772603,-151.41946)">
    <text
       xml:space="preserve"
       transform="scale(0.26458333)"
       id="text1879"
       style="font-style:normal;font-variant:normal;font-weight:normal;font-stretch:normal;font-size:40px;line-height:1.25;font-family:Pirulen;-inkscape-font-specification:Pirulen;white-space:pre;shape-inside:url(#rect1881);display:inline;fill:#000000;fill-opacity:1;stroke:none" />
    <g
       aria-label="ATHENA"
       transform="matrix(0.09707035,0,0,0.09707035,-32.977482,60.350045)"
       id="text14"
       style="font-size:40px;line-height:1.25;white-space:pre;shape-inside:url(#rect16)" />
    <text
       xml:space="preserve"
       style="font-style:normal;font-variant:normal;font-weight:normal;font-stretch:normal;font-size:2.13068px;line-height:1.4;font-family:Pirulen;-inkscape-font-specification:Pirulen;text-align:start;letter-spacing:0.0399502px;writing-mode:lr-tb;direction:ltr;text-anchor:start;fill:#000000;fill-opacity:1;stroke:none;stroke-width:0.045298;stroke-linecap:round;stroke-linejoin:round"
       x="-41.911098"
       y="146.41356"
       id="text1"><tspan
         sodipodi:role="line"
         id="tspan1"
         style="fill:#000000;fill-opacity:1;stroke:none;stroke-width:0.045298"
         x="-41.911098"
         y="146.41356">Bowlerino Edition</tspan></text>
    <path
       d="m -40.547463,152.91946 c 0.370738,0 0.475141,-0.1534 0.475141,-0.32386 v -0.21946 c 0,-0.14489 -0.0831,-0.2152 -0.196022,-0.24503 0.106534,-0.0213 0.176846,-0.11932 0.176846,-0.24929 v -0.13849 c 0,-0.20029 -0.12784,-0.32386 -0.460227,-0.32386 h -1.220879 v 1.49999 z m 0.191761,-0.37713 c 0,0.12145 -0.07883,0.15554 -0.191761,0.15554 h -0.941761 v -0.44531 h 0.941761 c 0.112926,0 0.191761,0.0341 0.191761,0.12784 z m -0.01918,-0.62855 c 0,0.0831 -0.04474,0.11719 -0.176847,0.11719 h -0.937499 v -0.38991 h 0.937499 c 0.132103,0 0.176847,0.0341 0.176847,0.11718 z m 2.059836,1.00568 c 0.340908,0 0.47088,-0.14701 0.47088,-0.36221 v -0.77557 c 0,-0.2152 -0.129972,-0.36221 -0.47088,-0.36221 h -0.990767 c -0.340909,0 -0.47088,0.14701 -0.47088,0.36221 v 0.77557 c 0,0.2152 0.129971,0.36221 0.47088,0.36221 z m 0.187499,-0.36008 c 0,0.0895 -0.05966,0.13849 -0.187499,0.13849 h -0.990767 c -0.127841,0 -0.1875,-0.049 -0.1875,-0.13849 v -0.77983 c 0,-0.0895 0.05966,-0.13849 0.1875,-0.13849 h 0.990767 c 0.12784,0 0.187499,0.049 0.187499,0.13849 z m 2.543501,0.36008 0.692471,-1.49999 h -0.274857 l -0.526278,1.15056 -0.519886,-1.15056 h -0.210938 l -0.526278,1.15056 -0.522016,-1.15056 h -0.272727 l 0.69034,1.49999 h 0.206676 l 0.530539,-1.15056 0.519886,1.15056 z m 2.373047,0 v -0.22159 h -1.216618 v -1.2784 h -0.285512 v 1.49999 z m 1.780716,0 v -0.22159 h -1.259232 v -0.46022 h 1.195312 v -0.22159 h -1.195312 v -0.375 h 1.259232 v -0.22159 h -1.542612 v 1.49999 z m 2.008698,0 -0.353693,-0.67329 c 0.266335,-0.0256 0.370739,-0.16406 0.370739,-0.35796 v -0.10653 c 0,-0.2152 -0.129972,-0.36221 -0.47088,-0.36221 h -1.274147 v 1.49999 h 0.28338 v -0.66903 h 0.790483 l 0.351562,0.66903 z m -0.266335,-1.02911 c 0,0.0895 -0.05966,0.13849 -0.187499,0.13849 h -0.990767 v -0.38778 h 0.990767 c 0.12784,0 0.187499,0.049 0.187499,0.13849 z m 0.845349,1.02911 v -1.49999 h -0.28338 v 1.49999 z m 2.313388,0 v -1.49999 h -0.247159 v 1.11434 l -1.493607,-1.11434 h -0.245028 v 1.49999 h 0.247159 v -1.16761 l 1.600141,1.16761 z m 1.767932,0 c 0.340908,0 0.47088,-0.14701 0.47088,-0.36221 v -0.77557 c 0,-0.2152 -0.129972,-0.36221 -0.47088,-0.36221 h -0.990767 c -0.340908,0 -0.47088,0.14701 -0.47088,0.36221 v 0.77557 c 0,0.2152 0.129972,0.36221 0.47088,0.36221 z m 0.187499,-0.36008 c 0,0.0895 -0.05966,0.13849 -0.187499,0.13849 h -0.990767 c -0.12784,0 -0.187499,-0.049 -0.187499,-0.13849 v -0.77983 c 0,-0.0895 0.05966,-0.13849 0.187499,-0.13849 h 0.990767 c 0.12784,0 0.187499,0.049 0.187499,0.13849 z m 3.23757,0.36008 v -0.22159 h -1.259232 v -0.46022 h 1.195312 v -0.22159 h -1.195312 v -0.375 h 1.259232 v -0.22159 h -1.542612 v 1.49999 z m 1.655004,0 c 0.424006,0 0.553977,-0.14701 0.553977,-0.42826 v -0.62855 c 0,-0.29617 -0.129971,-0.44318 -0.553977,-0.44318 h -1.374288 v 1.49999 z m 0.270597,-0.43039 c 0,0.1598 -0.05966,0.2088 -0.270597,0.2088 h -1.090908 v -1.05681 h 1.090908 c 0.210938,0 0.270597,0.049 0.270597,0.22159 z m 0.883701,0.43039 v -1.49999 h -0.28338 v 1.49999 z m 1.307707,0 v -1.2784 h 0.764914 v -0.22159 h -1.834516 v 0.22159 h 0.786221 v 1.2784 z m 1.28853,0 v -1.49999 h -0.28338 v 1.49999 z m 1.778587,0 c 0.340909,0 0.470881,-0.14701 0.470881,-0.36221 v -0.77557 c 0,-0.2152 -0.129972,-0.36221 -0.470881,-0.36221 h -0.990766 c -0.340909,0 -0.47088,0.14701 -0.47088,0.36221 v 0.77557 c 0,0.2152 0.129971,0.36221 0.47088,0.36221 z m 0.1875,-0.36008 c 0,0.0895 -0.05966,0.13849 -0.1875,0.13849 h -0.990766 c -0.127841,0 -0.1875,-0.049 -0.1875,-0.13849 v -0.77983 c 0,-0.0895 0.05966,-0.13849 0.1875,-0.13849 h 0.990766 c 0.127841,0 0.1875,0.049 0.1875,0.13849 z m 2.57546,0.36008 v -1.49999 h -0.247159 v 1.11434 l -1.493607,-1.11434 h -0.245028 v 1.49999 h 0.247159 v -1.16761 l 1.600141,1.16761 z"
       id="text2"
       style="font-size:2.13068px;line-height:1.4;font-family:Pirulen;-inkscape-font-specification:Pirulen;letter-spacing:0.0399502px;stroke-width:0.4;stroke-linecap:round;stroke-linejoin:round;stroke:#000000;stroke-opacity:1;stroke-dasharray:none"
       aria-label="Bowlerino Edition" />
  </g>
</svg>
