<?xml version="1.0" encoding="UTF-8" standalone="no"?>
<!-- Created with Inkscape (http://www.inkscape.org/) -->

<svg
   width="37.750114mm"
   height="6.3208222mm"
   viewBox="0 0 37.750115 6.3208221"
   version="1.1"
   id="svg5"
   inkscape:version="1.2.2 (b0a8486541, 2022-12-01)"
   sodipodi:docname="athena_label.svg"
   inkscape:export-filename="/home/alvaro/Desktop/AcheronProject/Athena/resources/athena_label_no_outline.png"
   inkscape:export-xdpi="5000"
   inkscape:export-ydpi="5000"
   xmlns:inkscape="http://www.inkscape.org/namespaces/inkscape"
   xmlns:sodipodi="http://sodipodi.sourceforge.net/DTD/sodipodi-0.dtd"
   xmlns="http://www.w3.org/2000/svg"
   xmlns:svg="http://www.w3.org/2000/svg">
  <sodipodi:namedview
     id="namedview7"
     pagecolor="#ffffff"
     bordercolor="#666666"
     borderopacity="1.0"
     inkscape:pageshadow="2"
     inkscape:pageopacity="0.0"
     inkscape:pagecheckerboard="0"
     inkscape:document-units="mm"
     showgrid="false"
     inkscape:zoom="2.086731"
     inkscape:cx="66.611365"
     inkscape:cy="34.02451"
     inkscape:window-width="1312"
     inkscape:window-height="454"
     inkscape:window-x="2007"
     inkscape:window-y="380"
     inkscape:window-maximized="0"
     inkscape:current-layer="layer1"
     inkscape:showpageshadow="2"
     inkscape:deskcolor="#d1d1d1" />
  <defs
     id="defs2">
    <rect
       x="-196.86472"
       y="554.54724"
       width="1358.4165"
       height="266.30865"
       id="rect1881" />
    <rect
       x="-196.86472"
       y="554.54724"
       width="1358.4165"
       height="266.30865"
       id="rect16" />
    <rect
       x="-196.86472"
       y="554.54724"
       width="1358.4165"
       height="266.30865"
       id="rect131" />
    <rect
       x="-196.86472"
       y="554.54724"
       width="1358.4165"
       height="266.30865"
       id="rect6377" />
    <rect
       x="-196.86472"
       y="554.54724"
       width="1358.4165"
       height="266.30865"
       id="rect31" />
    <rect
       x="-196.86472"
       y="554.54724"
       width="1358.4165"
       height="266.30865"
       id="rect443" />
    <rect
       x="-196.86472"
       y="554.54724"
       width="1358.4165"
       height="266.30865"
       id="rect447" />
  </defs>
  <g
     inkscape:label="Layer 1"
     inkscape:groupmode="layer"
     id="layer1"
     transform="translate(53.896814,-66.682638)">
    <text
       xml:space="preserve"
       transform="matrix(0.04592775,0,0,0.04592775,-57.17472,41.041442)"
       id="text129"
       style="font-style:normal;font-weight:normal;font-size:40px;line-height:1.25;font-family:sans-serif;text-align:center;white-space:pre;shape-inside:url(#rect131);display:inline;fill:#000000;fill-opacity:1;stroke:none;stroke-width:6.98536;stroke-linecap:round;stroke-linejoin:round;stroke-miterlimit:4;stroke-dasharray:none;stroke-opacity:1"
       x="407.4794"
       y="0"><tspan
         x="119.86366"
         y="589.94687"
         id="tspan835"><tspan
           style="font-family:Pirulen;-inkscape-font-specification:Pirulen"
           id="tspan833">ATHENA rev. gamma RC2
</tspan></tspan><tspan
         x="72.263603"
         y="641.18687"
         id="tspan839"><tspan
           style="font-family:Pirulen;-inkscape-font-specification:Pirulen"
           id="tspan837">designed by gondolindrim
</tspan></tspan><tspan
         x="98.963623"
         y="692.42686"
         id="tspan843"><tspan
           style="font-family:Pirulen;-inkscape-font-specification:Pirulen"
           id="tspan841">for the acheronproject</tspan></tspan></text>
    <g
       aria-label="ATHENA rev. gamma RC1 designed by gondolindrim for the acheronproject"
       transform="matrix(0.04592775,0,0,0.04592775,-55.160149,54.116628)"
       id="text441"
       style="font-size:40px;line-height:1.25;text-align:center;white-space:pre;shape-inside:url(#rect443);display:inline;stroke-width:2.1773329;stroke-linecap:round;stroke-linejoin:round;stroke-dasharray:none;stroke:#000000;stroke-opacity:1" />
    <g
       aria-label="ATHENA rev. gamma RC2
designed by gondolindrim
for the acheronproject"
       transform="matrix(0.04592775,0,0,0.04592775,-57.17472,51.271211)"
       id="text445"
       style="font-size:40px;line-height:1.25;text-align:center;white-space:pre;shape-inside:url(#rect447);display:inline;stroke-width:6.98536;stroke-linecap:round;stroke-linejoin:round">
      <path
         d="m 161.06366,589.94687 -18.6,-28.16 h -3.88 l -18.72,28.16 h 5.92 l 14.76,-22.67999 14.52,22.67999 z"
         style="font-family:Pirulen;-inkscape-font-specification:Pirulen"
         id="path449" />
      <path
         d="m 175.14368,589.94687 v -24 h 14.36 v -4.16 h -34.44 v 4.16 h 14.76 v 24 z"
         style="font-family:Pirulen;-inkscape-font-specification:Pirulen"
         id="path451" />
      <path
         d="m 226.74371,589.94687 v -28.16 h -5.32 v 11.2 h -23.04 v -11.2 h -5.32 v 28.16 h 5.32 v -12.79999 h 23.04 v 12.79999 z"
         style="font-family:Pirulen;-inkscape-font-specification:Pirulen"
         id="path453" />
      <path
         d="m 260.90372,589.94687 v -4.16 h -23.64 v -8.63999 h 22.44 v -4.16001 h -22.44 v -7.04 h 23.64 v -4.16 h -28.96 v 28.16 z"
         style="font-family:Pirulen;-inkscape-font-specification:Pirulen"
         id="path455" />
      <path
         d="m 302.70372,589.94687 v -28.16 h -4.64 v 20.92 l -28.04,-20.92 h -4.6 v 28.16 h 4.64 v -21.91999 l 30.04,21.91999 z"
         style="font-family:Pirulen;-inkscape-font-specification:Pirulen"
         id="path457" />
      <path
         d="m 346.50373,589.94687 -18.6,-28.16 h -3.88 l -18.72,28.16 h 5.92 l 14.76,-22.67999 14.52,22.67999 z"
         style="font-family:Pirulen;-inkscape-font-specification:Pirulen"
         id="path459" />
      <path
         d="m 401.54375,589.94687 -6.64,-12.64 c 5,-0.48 6.96,-3.08 6.96,-6.72 v -2 c 0,-4.04 -2.44,-6.8 -8.84,-6.8 h -23.92 v 28.16 h 5.32 v -12.55999 h 14.84 l 6.6,12.55999 z m -5,-19.32 c 0,1.68 -1.12,2.6 -3.52,2.6 h -18.6 v -7.28 h 18.6 c 2.4,0 3.52,0.92 3.52,2.6 z"
         style="font-family:Pirulen;-inkscape-font-specification:Pirulen"
         id="path461" />
      <path
         d="m 435.10378,589.94687 v -4.16 h -23.64 v -8.63999 h 22.44 v -4.16001 h -22.44 v -7.04 h 23.64 v -4.16 h -28.96 v 28.16 z"
         style="font-family:Pirulen;-inkscape-font-specification:Pirulen"
         id="path463" />
      <path
         d="m 459.62376,589.94687 18.6,-28.16 h -5.88 l -14.56,22.68 -14.72,-22.68 h -6.04 l 18.72,28.16 z"
         style="font-family:Pirulen;-inkscape-font-specification:Pirulen"
         id="path465" />
      <path
         d="m 481.3438,589.94687 v -5.2 h -6.28 v 5.2 z"
         style="font-family:Pirulen;-inkscape-font-specification:Pirulen"
         id="path467" />
      <path
         d="m 528.9438,589.94687 c 6.68,0 10.04,-2 10.04,-6 v -9.36 h -5.32 v 9.36 c 0,1.24 -1.56,1.84 -4.72,1.84 h -12.44 c -3.16,0 -4.72,-0.63999 -4.72,-1.92 v -16 c 0,-1.28 1.56,-1.92 4.72,-1.92 h 22.04 v -4.16 h -22.04 c -6.68,0 -10.04,2.04 -10.04,6.08 v 16 c 0,4.04001 3.36,6.08 10.04,6.08 z"
         style="font-family:Pirulen;-inkscape-font-specification:Pirulen"
         id="path469" />
      <path
         d="m 581.10379,589.94687 -18.6,-28.16 h -3.88 l -18.72,28.16 h 5.92 l 14.76,-22.67999 14.52,22.67999 z"
         style="font-family:Pirulen;-inkscape-font-specification:Pirulen"
         id="path471" />
      <path
         d="m 626.58384,589.94687 v -28.16 h -4.56 l -16.64,23 -16.72,-23 h -4.96 v 28.16 h 4.92 v -19.67999 l 14.36,19.67999 h 4.36 l 14.32,-19.72 v 19.72 z"
         style="font-family:Pirulen;-inkscape-font-specification:Pirulen"
         id="path473" />
      <path
         d="m 674.66379,589.94687 v -28.16 h -4.56 l -16.64,23 -16.72,-23 h -4.96 v 28.16 h 4.92 v -19.67999 l 14.36,19.67999 h 4.36 l 14.32,-19.72 v 19.72 z"
         style="font-family:Pirulen;-inkscape-font-specification:Pirulen"
         id="path475" />
      <path
         d="m 718.46381,589.94687 -18.6,-28.16 h -3.88 l -18.72,28.16 h 5.92 l 14.76,-22.67999 14.52,22.67999 z"
         style="font-family:Pirulen;-inkscape-font-specification:Pirulen"
         id="path477" />
      <path
         d="m 773.50382,589.94687 -6.64,-12.64 c 5,-0.48 6.96,-3.08 6.96,-6.72 v -2 c 0,-4.04 -2.44,-6.8 -8.84,-6.8 h -23.92 v 28.16 h 5.32 v -12.55999 h 14.84 l 6.6,12.55999 z m -5,-19.32 c 0,1.68 -1.12,2.6 -3.52,2.6 h -18.6 v -7.28 h 18.6 c 2.4,0 3.52,0.92 3.52,2.6 z"
         style="font-family:Pirulen;-inkscape-font-specification:Pirulen"
         id="path479" />
      <path
         d="m 809.42386,589.94687 v -4.16 h -22.68 c -2.4,0 -3.52,-0.92 -3.52,-2.6 v -14.64 c 0,-1.68 1.12,-2.6 3.52,-2.6 h 22.68 v -4.16 h -22.68 c -6.4,0 -8.84,2.76 -8.84,6.8 v 14.56001 c 0,4.03999 2.44,6.79999 8.84,6.79999 z"
         style="font-family:Pirulen;-inkscape-font-specification:Pirulen"
         id="path481" />
      <path
         d="m 842.54385,589.94687 v -4.16 h -23.8 v -6.16 c 0,-1.68 1.12,-2.59999 3.52,-2.59999 h 11.44 c 6.4,0 8.84,-2.76 8.84,-6.80001 v -1.64 c 0,-4.04 -2.44,-6.8 -8.84,-6.8 h -18.76 v 4.16 h 18.76 c 2.4,0 3.52,0.92 3.52,2.6 v 1.72001 c 0,1.67999 -1.12,2.59999 -3.52,2.59999 h -11.44 c -6.4,0 -8.84,2.76 -8.84,6.8 v 10.28 z"
         style="font-family:Pirulen;-inkscape-font-specification:Pirulen"
         id="path483" />
      <path
         d="m 100.6636,641.18687 c 7.96,0 10.4,-2.76 10.4,-8.04 v -11.8 c 0,-5.56 -2.44,-8.32 -10.4,-8.32 H 74.863603 v 28.16 z m 5.08,-8.08 c 0,3 -1.12,3.92 -5.08,3.92 H 80.183603 v -19.84 H 100.6636 c 3.96,0 5.08,0.92 5.08,4.16 z"
         style="font-family:Pirulen;-inkscape-font-specification:Pirulen"
         id="path485" />
      <path
         d="m 145.02363,641.18687 v -4.16 h -23.64 v -8.64 h 22.44 v -4.16 h -22.44 v -7.04 h 23.64 v -4.16 h -28.96 v 28.16 z"
         style="font-family:Pirulen;-inkscape-font-specification:Pirulen"
         id="path487" />
      <path
         d="m 174.38363,641.18687 c 6.4,0 8.84,-2.76 8.84,-6.8 v -3.48 c 0,-4.04 -2.44,-6.8 -8.84,-6.8 h -16.56 c -2.4,0 -3.52,-0.92 -3.52,-2.6 v -1.72 c 0,-1.68 1.12,-2.6 3.52,-2.6 h 23.84 v -4.16 h -23.84 c -6.4,0 -8.84,2.76 -8.84,6.8 v 1.64 c 0,4.04 2.44,6.8 8.84,6.8 h 16.56 c 2.4,0 3.52,0.92 3.52,2.6 v 3.56 c 0,1.68 -1.12,2.6 -3.52,2.6 h -24.48 v 4.16 z"
         style="font-family:Pirulen;-inkscape-font-specification:Pirulen"
         id="path489" />
      <path
         d="m 193.10363,641.18687 v -28.16 h -5.32 v 28.16 z"
         style="font-family:Pirulen;-inkscape-font-specification:Pirulen"
         id="path491" />
      <path
         d="m 220.78366,641.18687 c 6.68,0 10.04,-2 10.04,-6 v -9.36 h -5.32 v 9.36 c 0,1.24 -1.56,1.84 -4.72,1.84 h -12.44 c -3.16,0 -4.72,-0.64 -4.72,-1.92 v -16 c 0,-1.28 1.56,-1.92 4.72,-1.92 h 22.04 v -4.16 h -22.04 c -6.68,0 -10.04,2.04 -10.04,6.08 v 16 c 0,4.04 3.36,6.08 10.04,6.08 z"
         style="font-family:Pirulen;-inkscape-font-specification:Pirulen"
         id="path493" />
      <path
         d="m 273.02365,641.18687 v -28.16 h -4.64 v 20.92 l -28.04,-20.92 h -4.6 v 28.16 h 4.64 v -21.92 l 30.04,21.92 z"
         style="font-family:Pirulen;-inkscape-font-specification:Pirulen"
         id="path495" />
      <path
         d="m 307.18366,641.18687 v -4.16 h -23.64 v -8.64 h 22.44 v -4.16 h -22.44 v -7.04 h 23.64 v -4.16 h -28.96 v 28.16 z"
         style="font-family:Pirulen;-inkscape-font-specification:Pirulen"
         id="path497" />
      <path
         d="m 337.50366,641.18687 c 7.96,0 10.4,-2.76 10.4,-8.04 v -11.8 c 0,-5.56 -2.44,-8.32 -10.4,-8.32 h -25.8 v 28.16 z m 5.08,-8.08 c 0,3 -1.12,3.92 -5.08,3.92 h -20.48 v -19.84 h 20.48 c 3.96,0 5.08,0.92 5.08,4.16 z"
         style="font-family:Pirulen;-inkscape-font-specification:Pirulen"
         id="path499" />
      <path
         d="m 395.9037,641.18687 c 6.96,0 8.92,-2.88 8.92,-6.08 v -4.12 c 0,-2.72 -1.56,-4.04 -3.68,-4.6 2,-0.4 3.32,-2.24 3.32,-4.68 v -2.6 c 0,-3.76 -2.4,-6.08 -8.64,-6.08 h -22.92 v 28.16 z m 3.6,-7.08 c 0,2.28 -1.48,2.92 -3.6,2.92 h -17.68 v -8.36 h 17.68 c 2.12,0 3.6,0.64 3.6,2.4 z m -0.36,-11.8 c 0,1.56 -0.84,2.2 -3.32,2.2 h -17.6 v -7.32 h 17.6 c 2.48,0 3.32,0.64 3.32,2.2 z"
         style="font-family:Pirulen;-inkscape-font-specification:Pirulen"
         id="path501" />
      <path
         d="m 428.8237,641.18687 v -11.44 l 17.96,-16.72 h -6.72 l -13.92,12.88 -13.92,-12.88 h -6.8 l 18.08,16.72 v 11.44 z"
         style="font-family:Pirulen;-inkscape-font-specification:Pirulen"
         id="path503" />
      <path
         d="m 491.66371,641.18687 c 6.68,0 10.04,-2 10.04,-6 v -9.36 h -5.32 v 9.36 c 0,1.24 -1.56,1.84 -4.72,1.84 h -12.44 c -3.16,0 -4.72,-0.64 -4.72,-1.92 v -16 c 0,-1.28 1.56,-1.92 4.72,-1.92 h 22.04 v -4.16 h -22.04 c -6.68,0 -10.04,2.04 -10.04,6.08 v 16 c 0,4.04 3.36,6.08 10.04,6.08 z"
         style="font-family:Pirulen;-inkscape-font-specification:Pirulen"
         id="path505" />
      <path
         d="m 533.8637,641.18687 c 6.4,0 8.84,-2.76 8.84,-6.8 v -14.56 c 0,-4.04 -2.44,-6.8 -8.84,-6.8 h -18.6 c -6.4,0 -8.84,2.76 -8.84,6.8 v 14.56 c 0,4.04 2.44,6.8 8.84,6.8 z m 3.52,-6.76 c 0,1.68 -1.12,2.6 -3.52,2.6 h -18.6 c -2.4,0 -3.52,-0.92 -3.52,-2.6 v -14.64 c 0,-1.68 1.12,-2.6 3.52,-2.6 h 18.6 c 2.4,0 3.52,0.92 3.52,2.6 z"
         style="font-family:Pirulen;-inkscape-font-specification:Pirulen"
         id="path507" />
      <path
         d="m 584.98372,641.18687 v -28.16 h -4.64 v 20.92 l -28.04,-20.92 h -4.6 v 28.16 h 4.64 v -21.92 l 30.04,21.92 z"
         style="font-family:Pirulen;-inkscape-font-specification:Pirulen"
         id="path509" />
      <path
         d="m 615.98373,641.18687 c 7.96,0 10.4,-2.76 10.4,-8.04 v -11.8 c 0,-5.56 -2.44,-8.32 -10.4,-8.32 h -25.8 v 28.16 z m 5.08,-8.08 c 0,3 -1.12,3.92 -5.08,3.92 h -20.48 v -19.84 h 20.48 c 3.96,0 5.08,0.92 5.08,4.16 z"
         style="font-family:Pirulen;-inkscape-font-specification:Pirulen"
         id="path511" />
      <path
         d="m 658.62374,641.18687 c 6.4,0 8.84,-2.76 8.84,-6.8 v -14.56 c 0,-4.04 -2.44,-6.8 -8.84,-6.8 h -18.6 c -6.4,0 -8.84,2.76 -8.84,6.8 v 14.56 c 0,4.04 2.44,6.8 8.84,6.8 z m 3.52,-6.76 c 0,1.68 -1.12,2.6 -3.52,2.6 h -18.6 c -2.4,0 -3.52,-0.92 -3.52,-2.6 v -14.64 c 0,-1.68 1.12,-2.6 3.52,-2.6 h 18.6 c 2.4,0 3.52,0.92 3.52,2.6 z"
         style="font-family:Pirulen;-inkscape-font-specification:Pirulen"
         id="path513" />
      <path
         d="m 700.66376,641.18687 v -4.16 h -22.84 v -24 h -5.36 v 28.16 z"
         style="font-family:Pirulen;-inkscape-font-specification:Pirulen"
         id="path515" />
      <path
         d="m 709.90381,641.18687 v -28.16 h -5.32 v 28.16 z"
         style="font-family:Pirulen;-inkscape-font-specification:Pirulen"
         id="path517" />
      <path
         d="m 752.58379,641.18687 v -28.16 h -4.64 v 20.92 l -28.04,-20.92 h -4.6 v 28.16 h 4.64 v -21.92 l 30.04,21.92 z"
         style="font-family:Pirulen;-inkscape-font-specification:Pirulen"
         id="path519" />
      <path
         d="m 783.58383,641.18687 c 7.96,0 10.4,-2.76 10.4,-8.04 v -11.8 c 0,-5.56 -2.44,-8.32 -10.4,-8.32 h -25.8 v 28.16 z m 5.08,-8.08 c 0,3 -1.12,3.92 -5.08,3.92 h -20.48 v -19.84 h 20.48 c 3.96,0 5.08,0.92 5.08,4.16 z"
         style="font-family:Pirulen;-inkscape-font-specification:Pirulen"
         id="path521" />
      <path
         d="m 831.42384,641.18687 -6.64,-12.64 c 5,-0.48 6.96,-3.08 6.96,-6.72 v -2 c 0,-4.04 -2.44,-6.8 -8.84,-6.8 h -23.92 v 28.16 h 5.32 v -12.56 h 14.84 l 6.6,12.56 z m -5,-19.32 c 0,1.68 -1.12,2.6 -3.52,2.6 h -18.6 v -7.28 h 18.6 c 2.4,0 3.52,0.92 3.52,2.6 z"
         style="font-family:Pirulen;-inkscape-font-specification:Pirulen"
         id="path523" />
      <path
         d="m 841.54388,641.18687 v -28.16 h -5.32 v 28.16 z"
         style="font-family:Pirulen;-inkscape-font-specification:Pirulen"
         id="path525" />
      <path
         d="m 889.82393,641.18687 v -28.16 h -4.56 l -16.64,23 -16.72,-23 h -4.96 v 28.16 h 4.92 v -19.68 l 14.36,19.68 h 4.36 l 14.32,-19.72 v 19.72 z"
         style="font-family:Pirulen;-inkscape-font-specification:Pirulen"
         id="path527" />
      <path
         d="m 128.92362,680.82686 v -4.16 h -22.04 v -8.24 h 23.64 v -4.16 h -28.96 v 28.16 h 5.32 v -11.6 z"
         style="font-family:Pirulen;-inkscape-font-specification:Pirulen"
         id="path529" />
      <path
         d="m 160.6436,692.42686 c 6.4,0 8.84,-2.76 8.84,-6.8 v -14.56 c 0,-4.04 -2.44,-6.8 -8.84,-6.8 h -18.6 c -6.4,0 -8.84,2.76 -8.84,6.8 v 14.56 c 0,4.04 2.44,6.8 8.84,6.8 z m 3.52,-6.76 c 0,1.68 -1.12,2.6 -3.52,2.6 h -18.6 c -2.4,0 -3.52,-0.92 -3.52,-2.6 v -14.64 c 0,-1.68 1.12,-2.6 3.52,-2.6 h 18.6 c 2.4,0 3.52,0.92 3.52,2.6 z"
         style="font-family:Pirulen;-inkscape-font-specification:Pirulen"
         id="path531" />
      <path
         d="m 206.92362,692.42686 -6.64,-12.64 c 5,-0.48 6.96,-3.08 6.96,-6.72 v -2 c 0,-4.04 -2.44,-6.8 -8.84,-6.8 h -23.92 v 28.16 h 5.32 v -12.56 h 14.84 l 6.6,12.56 z m -5,-19.32 c 0,1.68 -1.12,2.6 -3.52,2.6 h -18.6 v -7.28 h 18.6 c 2.4,0 3.52,0.92 3.52,2.6 z"
         style="font-family:Pirulen;-inkscape-font-specification:Pirulen"
         id="path533" />
      <path
         d="m 249.92365,692.42686 v -24 h 14.36 v -4.16 h -34.44 v 4.16 h 14.76 v 24 z"
         style="font-family:Pirulen;-inkscape-font-specification:Pirulen"
         id="path535" />
      <path
         d="m 301.52368,692.42686 v -28.16 h -5.32 v 11.2 h -23.04 v -11.2 h -5.32 v 28.16 h 5.32 v -12.8 h 23.04 v 12.8 z"
         style="font-family:Pirulen;-inkscape-font-specification:Pirulen"
         id="path537" />
      <path
         d="m 335.68369,692.42686 v -4.16 h -23.64 v -8.64 h 22.44 v -4.16 h -22.44 v -7.04 h 23.64 v -4.16 h -28.96 v 28.16 z"
         style="font-family:Pirulen;-inkscape-font-specification:Pirulen"
         id="path539" />
      <path
         d="m 398.8037,692.42686 -18.6,-28.16 h -3.88 l -18.72,28.16 h 5.92 l 14.76,-22.68 14.52,22.68 z"
         style="font-family:Pirulen;-inkscape-font-specification:Pirulen"
         id="path541" />
      <path
         d="m 432.72371,692.42686 v -4.16 h -22.68 c -2.4,0 -3.52,-0.92 -3.52,-2.6 v -14.64 c 0,-1.68 1.12,-2.6 3.52,-2.6 h 22.68 v -4.16 h -22.68 c -6.4,0 -8.84,2.76 -8.84,6.8 v 14.56 c 0,4.04 2.44,6.8 8.84,6.8 z"
         style="font-family:Pirulen;-inkscape-font-specification:Pirulen"
         id="path543" />
      <path
         d="m 470.88373,692.42686 v -28.16 h -5.32 v 11.2 h -23.04 v -11.2 h -5.32 v 28.16 h 5.32 v -12.8 h 23.04 v 12.8 z"
         style="font-family:Pirulen;-inkscape-font-specification:Pirulen"
         id="path545" />
      <path
         d="m 505.04373,692.42686 v -4.16 h -23.64 v -8.64 h 22.44 v -4.16 h -22.44 v -7.04 h 23.64 v -4.16 h -28.96 v 28.16 z"
         style="font-family:Pirulen;-inkscape-font-specification:Pirulen"
         id="path547" />
      <path
         d="m 542.00375,692.42686 -6.64,-12.64 c 5,-0.48 6.96,-3.08 6.96,-6.72 v -2 c 0,-4.04 -2.44,-6.8 -8.84,-6.8 h -23.92 v 28.16 h 5.32 v -12.56 h 14.84 l 6.6,12.56 z m -5,-19.32 c 0,1.68 -1.12,2.6 -3.52,2.6 h -18.6 v -7.28 h 18.6 c 2.4,0 3.52,0.92 3.52,2.6 z"
         style="font-family:Pirulen;-inkscape-font-specification:Pirulen"
         id="path549" />
      <path
         d="m 573.84375,692.42686 c 6.4,0 8.84,-2.76 8.84,-6.8 v -14.56 c 0,-4.04 -2.44,-6.8 -8.84,-6.8 h -18.6 c -6.4,0 -8.84,2.76 -8.84,6.8 v 14.56 c 0,4.04 2.44,6.8 8.84,6.8 z m 3.52,-6.76 c 0,1.68 -1.12,2.6 -3.52,2.6 h -18.6 c -2.4,0 -3.52,-0.92 -3.52,-2.6 v -14.64 c 0,-1.68 1.12,-2.6 3.52,-2.6 h 18.6 c 2.4,0 3.52,0.92 3.52,2.6 z"
         style="font-family:Pirulen;-inkscape-font-specification:Pirulen"
         id="path551" />
      <path
         d="m 624.96377,692.42686 v -28.16 h -4.64 v 20.92 l -28.04,-20.92 h -4.6 v 28.16 h 4.64 v -21.92 l 30.04,21.92 z"
         style="font-family:Pirulen;-inkscape-font-specification:Pirulen"
         id="path553" />
      <path
         d="m 653.24378,682.02686 c 6.4,0 8.84,-2.76 8.84,-6.8 v -4.16 c 0,-4.04 -2.44,-6.8 -8.84,-6.8 h -23.08 v 28.16 h 5.32 v -10.4 z m 3.52,-6.76 c 0,1.68 -1.12,2.6 -3.52,2.6 h -17.76 v -9.44 h 17.76 c 2.4,0 3.52,0.92 3.52,2.6 z"
         style="font-family:Pirulen;-inkscape-font-specification:Pirulen"
         id="path555" />
      <path
         d="m 698.2438,692.42686 -6.64,-12.64 c 5,-0.48 6.96,-3.08 6.96,-6.72 v -2 c 0,-4.04 -2.44,-6.8 -8.84,-6.8 h -23.92 v 28.16 h 5.32 v -12.56 h 14.84 l 6.6,12.56 z m -5,-19.32 c 0,1.68 -1.12,2.6 -3.52,2.6 h -18.6 v -7.28 h 18.6 c 2.4,0 3.52,0.92 3.52,2.6 z"
         style="font-family:Pirulen;-inkscape-font-specification:Pirulen"
         id="path557" />
      <path
         d="m 730.08384,692.42686 c 6.4,0 8.84,-2.76 8.84,-6.8 v -14.56 c 0,-4.04 -2.44,-6.8 -8.84,-6.8 h -18.6 c -6.4,0 -8.84,2.76 -8.84,6.8 v 14.56 c 0,4.04 2.44,6.8 8.84,6.8 z m 3.52,-6.76 c 0,1.68 -1.12,2.6 -3.52,2.6 h -18.6 c -2.4,0 -3.52,-0.92 -3.52,-2.6 v -14.64 c 0,-1.68 1.12,-2.6 3.52,-2.6 h 18.6 c 2.4,0 3.52,0.92 3.52,2.6 z"
         style="font-family:Pirulen;-inkscape-font-specification:Pirulen"
         id="path559" />
      <path
         d="m 748.84385,692.42686 c 6.24,0 8.8,-2.52 8.8,-6 v -22.16 h -5.32 v 22.16 c 0,1.24 -1.04,1.84 -3.48,1.84 h -7.72 v 4.16 z"
         style="font-family:Pirulen;-inkscape-font-specification:Pirulen"
         id="path561" />
      <path
         d="m 791.68384,692.42686 v -4.16 h -23.64 v -8.64 h 22.44 v -4.16 h -22.44 v -7.04 h 23.64 v -4.16 h -28.96 v 28.16 z"
         style="font-family:Pirulen;-inkscape-font-specification:Pirulen"
         id="path563" />
      <path
         d="m 827.52382,692.42686 v -4.16 h -22.68 c -2.4,0 -3.52,-0.92 -3.52,-2.6 v -14.64 c 0,-1.68 1.12,-2.6 3.52,-2.6 h 22.68 v -4.16 h -22.68 c -6.4,0 -8.84,2.76 -8.84,6.8 v 14.56 c 0,4.04 2.44,6.8 8.84,6.8 z"
         style="font-family:Pirulen;-inkscape-font-specification:Pirulen"
         id="path565" />
      <path
         d="m 850.40381,692.42686 v -24 h 14.36 v -4.16 h -34.44 v 4.16 h 14.76 v 24 z"
         style="font-family:Pirulen;-inkscape-font-specification:Pirulen"
         id="path567" />
    </g>
    <g
       aria-label="ATHENA rev. gamma RC2
designed by gondolindrim
for the acheronproject"
       transform="matrix(0.04592775,0,0,0.04592775,-57.17472,51.271211)"
       id="g690"
       style="font-size:40px;line-height:1.25;text-align:center;white-space:pre;shape-inside:url(#rect447);display:inline;stroke-width:6.98536;stroke-linecap:round;stroke-linejoin:round">
      <path
         d="m 161.06366,589.94687 -18.6,-28.16 h -3.88 l -18.72,28.16 h 5.92 l 14.76,-22.67999 14.52,22.67999 z"
         style="font-family:Pirulen;-inkscape-font-specification:Pirulen"
         id="path570" />
      <path
         d="m 175.14368,589.94687 v -24 h 14.36 v -4.16 h -34.44 v 4.16 h 14.76 v 24 z"
         style="font-family:Pirulen;-inkscape-font-specification:Pirulen"
         id="path572" />
      <path
         d="m 226.74371,589.94687 v -28.16 h -5.32 v 11.2 h -23.04 v -11.2 h -5.32 v 28.16 h 5.32 v -12.79999 h 23.04 v 12.79999 z"
         style="font-family:Pirulen;-inkscape-font-specification:Pirulen"
         id="path574" />
      <path
         d="m 260.90372,589.94687 v -4.16 h -23.64 v -8.63999 h 22.44 v -4.16001 h -22.44 v -7.04 h 23.64 v -4.16 h -28.96 v 28.16 z"
         style="font-family:Pirulen;-inkscape-font-specification:Pirulen"
         id="path576" />
      <path
         d="m 302.70372,589.94687 v -28.16 h -4.64 v 20.92 l -28.04,-20.92 h -4.6 v 28.16 h 4.64 v -21.91999 l 30.04,21.91999 z"
         style="font-family:Pirulen;-inkscape-font-specification:Pirulen"
         id="path578" />
      <path
         d="m 346.50373,589.94687 -18.6,-28.16 h -3.88 l -18.72,28.16 h 5.92 l 14.76,-22.67999 14.52,22.67999 z"
         style="font-family:Pirulen;-inkscape-font-specification:Pirulen"
         id="path580" />
      <path
         d="m 401.54375,589.94687 -6.64,-12.64 c 5,-0.48 6.96,-3.08 6.96,-6.72 v -2 c 0,-4.04 -2.44,-6.8 -8.84,-6.8 h -23.92 v 28.16 h 5.32 v -12.55999 h 14.84 l 6.6,12.55999 z m -5,-19.32 c 0,1.68 -1.12,2.6 -3.52,2.6 h -18.6 v -7.28 h 18.6 c 2.4,0 3.52,0.92 3.52,2.6 z"
         style="font-family:Pirulen;-inkscape-font-specification:Pirulen"
         id="path582" />
      <path
         d="m 435.10378,589.94687 v -4.16 h -23.64 v -8.63999 h 22.44 v -4.16001 h -22.44 v -7.04 h 23.64 v -4.16 h -28.96 v 28.16 z"
         style="font-family:Pirulen;-inkscape-font-specification:Pirulen"
         id="path584" />
      <path
         d="m 459.62376,589.94687 18.6,-28.16 h -5.88 l -14.56,22.68 -14.72,-22.68 h -6.04 l 18.72,28.16 z"
         style="font-family:Pirulen;-inkscape-font-specification:Pirulen"
         id="path586" />
      <path
         d="m 481.3438,589.94687 v -5.2 h -6.28 v 5.2 z"
         style="font-family:Pirulen;-inkscape-font-specification:Pirulen"
         id="path588" />
      <path
         d="m 528.9438,589.94687 c 6.68,0 10.04,-2 10.04,-6 v -9.36 h -5.32 v 9.36 c 0,1.24 -1.56,1.84 -4.72,1.84 h -12.44 c -3.16,0 -4.72,-0.63999 -4.72,-1.92 v -16 c 0,-1.28 1.56,-1.92 4.72,-1.92 h 22.04 v -4.16 h -22.04 c -6.68,0 -10.04,2.04 -10.04,6.08 v 16 c 0,4.04001 3.36,6.08 10.04,6.08 z"
         style="font-family:Pirulen;-inkscape-font-specification:Pirulen"
         id="path590" />
      <path
         d="m 581.10379,589.94687 -18.6,-28.16 h -3.88 l -18.72,28.16 h 5.92 l 14.76,-22.67999 14.52,22.67999 z"
         style="font-family:Pirulen;-inkscape-font-specification:Pirulen"
         id="path592" />
      <path
         d="m 626.58384,589.94687 v -28.16 h -4.56 l -16.64,23 -16.72,-23 h -4.96 v 28.16 h 4.92 v -19.67999 l 14.36,19.67999 h 4.36 l 14.32,-19.72 v 19.72 z"
         style="font-family:Pirulen;-inkscape-font-specification:Pirulen"
         id="path594" />
      <path
         d="m 674.66379,589.94687 v -28.16 h -4.56 l -16.64,23 -16.72,-23 h -4.96 v 28.16 h 4.92 v -19.67999 l 14.36,19.67999 h 4.36 l 14.32,-19.72 v 19.72 z"
         style="font-family:Pirulen;-inkscape-font-specification:Pirulen"
         id="path596" />
      <path
         d="m 718.46381,589.94687 -18.6,-28.16 h -3.88 l -18.72,28.16 h 5.92 l 14.76,-22.67999 14.52,22.67999 z"
         style="font-family:Pirulen;-inkscape-font-specification:Pirulen"
         id="path598" />
      <path
         d="m 773.50382,589.94687 -6.64,-12.64 c 5,-0.48 6.96,-3.08 6.96,-6.72 v -2 c 0,-4.04 -2.44,-6.8 -8.84,-6.8 h -23.92 v 28.16 h 5.32 v -12.55999 h 14.84 l 6.6,12.55999 z m -5,-19.32 c 0,1.68 -1.12,2.6 -3.52,2.6 h -18.6 v -7.28 h 18.6 c 2.4,0 3.52,0.92 3.52,2.6 z"
         style="font-family:Pirulen;-inkscape-font-specification:Pirulen"
         id="path600" />
      <path
         d="m 809.42386,589.94687 v -4.16 h -22.68 c -2.4,0 -3.52,-0.92 -3.52,-2.6 v -14.64 c 0,-1.68 1.12,-2.6 3.52,-2.6 h 22.68 v -4.16 h -22.68 c -6.4,0 -8.84,2.76 -8.84,6.8 v 14.56001 c 0,4.03999 2.44,6.79999 8.84,6.79999 z"
         style="font-family:Pirulen;-inkscape-font-specification:Pirulen"
         id="path602" />
      <path
         d="m 842.54385,589.94687 v -4.16 h -23.8 v -6.16 c 0,-1.68 1.12,-2.59999 3.52,-2.59999 h 11.44 c 6.4,0 8.84,-2.76 8.84,-6.80001 v -1.64 c 0,-4.04 -2.44,-6.8 -8.84,-6.8 h -18.76 v 4.16 h 18.76 c 2.4,0 3.52,0.92 3.52,2.6 v 1.72001 c 0,1.67999 -1.12,2.59999 -3.52,2.59999 h -11.44 c -6.4,0 -8.84,2.76 -8.84,6.8 v 10.28 z"
         style="font-family:Pirulen;-inkscape-font-specification:Pirulen"
         id="path604" />
      <path
         d="m 100.6636,641.18687 c 7.96,0 10.4,-2.76 10.4,-8.04 v -11.8 c 0,-5.56 -2.44,-8.32 -10.4,-8.32 H 74.863603 v 28.16 z m 5.08,-8.08 c 0,3 -1.12,3.92 -5.08,3.92 H 80.183603 v -19.84 H 100.6636 c 3.96,0 5.08,0.92 5.08,4.16 z"
         style="font-family:Pirulen;-inkscape-font-specification:Pirulen"
         id="path606" />
      <path
         d="m 145.02363,641.18687 v -4.16 h -23.64 v -8.64 h 22.44 v -4.16 h -22.44 v -7.04 h 23.64 v -4.16 h -28.96 v 28.16 z"
         style="font-family:Pirulen;-inkscape-font-specification:Pirulen"
         id="path608" />
      <path
         d="m 174.38363,641.18687 c 6.4,0 8.84,-2.76 8.84,-6.8 v -3.48 c 0,-4.04 -2.44,-6.8 -8.84,-6.8 h -16.56 c -2.4,0 -3.52,-0.92 -3.52,-2.6 v -1.72 c 0,-1.68 1.12,-2.6 3.52,-2.6 h 23.84 v -4.16 h -23.84 c -6.4,0 -8.84,2.76 -8.84,6.8 v 1.64 c 0,4.04 2.44,6.8 8.84,6.8 h 16.56 c 2.4,0 3.52,0.92 3.52,2.6 v 3.56 c 0,1.68 -1.12,2.6 -3.52,2.6 h -24.48 v 4.16 z"
         style="font-family:Pirulen;-inkscape-font-specification:Pirulen"
         id="path610" />
      <path
         d="m 193.10363,641.18687 v -28.16 h -5.32 v 28.16 z"
         style="font-family:Pirulen;-inkscape-font-specification:Pirulen"
         id="path612" />
      <path
         d="m 220.78366,641.18687 c 6.68,0 10.04,-2 10.04,-6 v -9.36 h -5.32 v 9.36 c 0,1.24 -1.56,1.84 -4.72,1.84 h -12.44 c -3.16,0 -4.72,-0.64 -4.72,-1.92 v -16 c 0,-1.28 1.56,-1.92 4.72,-1.92 h 22.04 v -4.16 h -22.04 c -6.68,0 -10.04,2.04 -10.04,6.08 v 16 c 0,4.04 3.36,6.08 10.04,6.08 z"
         style="font-family:Pirulen;-inkscape-font-specification:Pirulen"
         id="path614" />
      <path
         d="m 273.02365,641.18687 v -28.16 h -4.64 v 20.92 l -28.04,-20.92 h -4.6 v 28.16 h 4.64 v -21.92 l 30.04,21.92 z"
         style="font-family:Pirulen;-inkscape-font-specification:Pirulen"
         id="path616" />
      <path
         d="m 307.18366,641.18687 v -4.16 h -23.64 v -8.64 h 22.44 v -4.16 h -22.44 v -7.04 h 23.64 v -4.16 h -28.96 v 28.16 z"
         style="font-family:Pirulen;-inkscape-font-specification:Pirulen"
         id="path618" />
      <path
         d="m 337.50366,641.18687 c 7.96,0 10.4,-2.76 10.4,-8.04 v -11.8 c 0,-5.56 -2.44,-8.32 -10.4,-8.32 h -25.8 v 28.16 z m 5.08,-8.08 c 0,3 -1.12,3.92 -5.08,3.92 h -20.48 v -19.84 h 20.48 c 3.96,0 5.08,0.92 5.08,4.16 z"
         style="font-family:Pirulen;-inkscape-font-specification:Pirulen"
         id="path620" />
      <path
         d="m 395.9037,641.18687 c 6.96,0 8.92,-2.88 8.92,-6.08 v -4.12 c 0,-2.72 -1.56,-4.04 -3.68,-4.6 2,-0.4 3.32,-2.24 3.32,-4.68 v -2.6 c 0,-3.76 -2.4,-6.08 -8.64,-6.08 h -22.92 v 28.16 z m 3.6,-7.08 c 0,2.28 -1.48,2.92 -3.6,2.92 h -17.68 v -8.36 h 17.68 c 2.12,0 3.6,0.64 3.6,2.4 z m -0.36,-11.8 c 0,1.56 -0.84,2.2 -3.32,2.2 h -17.6 v -7.32 h 17.6 c 2.48,0 3.32,0.64 3.32,2.2 z"
         style="font-family:Pirulen;-inkscape-font-specification:Pirulen"
         id="path622" />
      <path
         d="m 428.8237,641.18687 v -11.44 l 17.96,-16.72 h -6.72 l -13.92,12.88 -13.92,-12.88 h -6.8 l 18.08,16.72 v 11.44 z"
         style="font-family:Pirulen;-inkscape-font-specification:Pirulen"
         id="path624" />
      <path
         d="m 491.66371,641.18687 c 6.68,0 10.04,-2 10.04,-6 v -9.36 h -5.32 v 9.36 c 0,1.24 -1.56,1.84 -4.72,1.84 h -12.44 c -3.16,0 -4.72,-0.64 -4.72,-1.92 v -16 c 0,-1.28 1.56,-1.92 4.72,-1.92 h 22.04 v -4.16 h -22.04 c -6.68,0 -10.04,2.04 -10.04,6.08 v 16 c 0,4.04 3.36,6.08 10.04,6.08 z"
         style="font-family:Pirulen;-inkscape-font-specification:Pirulen"
         id="path626" />
      <path
         d="m 533.8637,641.18687 c 6.4,0 8.84,-2.76 8.84,-6.8 v -14.56 c 0,-4.04 -2.44,-6.8 -8.84,-6.8 h -18.6 c -6.4,0 -8.84,2.76 -8.84,6.8 v 14.56 c 0,4.04 2.44,6.8 8.84,6.8 z m 3.52,-6.76 c 0,1.68 -1.12,2.6 -3.52,2.6 h -18.6 c -2.4,0 -3.52,-0.92 -3.52,-2.6 v -14.64 c 0,-1.68 1.12,-2.6 3.52,-2.6 h 18.6 c 2.4,0 3.52,0.92 3.52,2.6 z"
         style="font-family:Pirulen;-inkscape-font-specification:Pirulen"
         id="path628" />
      <path
         d="m 584.98372,641.18687 v -28.16 h -4.64 v 20.92 l -28.04,-20.92 h -4.6 v 28.16 h 4.64 v -21.92 l 30.04,21.92 z"
         style="font-family:Pirulen;-inkscape-font-specification:Pirulen"
         id="path630" />
      <path
         d="m 615.98373,641.18687 c 7.96,0 10.4,-2.76 10.4,-8.04 v -11.8 c 0,-5.56 -2.44,-8.32 -10.4,-8.32 h -25.8 v 28.16 z m 5.08,-8.08 c 0,3 -1.12,3.92 -5.08,3.92 h -20.48 v -19.84 h 20.48 c 3.96,0 5.08,0.92 5.08,4.16 z"
         style="font-family:Pirulen;-inkscape-font-specification:Pirulen"
         id="path632" />
      <path
         d="m 658.62374,641.18687 c 6.4,0 8.84,-2.76 8.84,-6.8 v -14.56 c 0,-4.04 -2.44,-6.8 -8.84,-6.8 h -18.6 c -6.4,0 -8.84,2.76 -8.84,6.8 v 14.56 c 0,4.04 2.44,6.8 8.84,6.8 z m 3.52,-6.76 c 0,1.68 -1.12,2.6 -3.52,2.6 h -18.6 c -2.4,0 -3.52,-0.92 -3.52,-2.6 v -14.64 c 0,-1.68 1.12,-2.6 3.52,-2.6 h 18.6 c 2.4,0 3.52,0.92 3.52,2.6 z"
         style="font-family:Pirulen;-inkscape-font-specification:Pirulen"
         id="path634" />
      <path
         d="m 700.66376,641.18687 v -4.16 h -22.84 v -24 h -5.36 v 28.16 z"
         style="font-family:Pirulen;-inkscape-font-specification:Pirulen"
         id="path636" />
      <path
         d="m 709.90381,641.18687 v -28.16 h -5.32 v 28.16 z"
         style="font-family:Pirulen;-inkscape-font-specification:Pirulen"
         id="path638" />
      <path
         d="m 752.58379,641.18687 v -28.16 h -4.64 v 20.92 l -28.04,-20.92 h -4.6 v 28.16 h 4.64 v -21.92 l 30.04,21.92 z"
         style="font-family:Pirulen;-inkscape-font-specification:Pirulen"
         id="path640" />
      <path
         d="m 783.58383,641.18687 c 7.96,0 10.4,-2.76 10.4,-8.04 v -11.8 c 0,-5.56 -2.44,-8.32 -10.4,-8.32 h -25.8 v 28.16 z m 5.08,-8.08 c 0,3 -1.12,3.92 -5.08,3.92 h -20.48 v -19.84 h 20.48 c 3.96,0 5.08,0.92 5.08,4.16 z"
         style="font-family:Pirulen;-inkscape-font-specification:Pirulen"
         id="path642" />
      <path
         d="m 831.42384,641.18687 -6.64,-12.64 c 5,-0.48 6.96,-3.08 6.96,-6.72 v -2 c 0,-4.04 -2.44,-6.8 -8.84,-6.8 h -23.92 v 28.16 h 5.32 v -12.56 h 14.84 l 6.6,12.56 z m -5,-19.32 c 0,1.68 -1.12,2.6 -3.52,2.6 h -18.6 v -7.28 h 18.6 c 2.4,0 3.52,0.92 3.52,2.6 z"
         style="font-family:Pirulen;-inkscape-font-specification:Pirulen"
         id="path644" />
      <path
         d="m 841.54388,641.18687 v -28.16 h -5.32 v 28.16 z"
         style="font-family:Pirulen;-inkscape-font-specification:Pirulen"
         id="path646" />
      <path
         d="m 889.82393,641.18687 v -28.16 h -4.56 l -16.64,23 -16.72,-23 h -4.96 v 28.16 h 4.92 v -19.68 l 14.36,19.68 h 4.36 l 14.32,-19.72 v 19.72 z"
         style="font-family:Pirulen;-inkscape-font-specification:Pirulen"
         id="path648" />
      <path
         d="m 128.92362,680.82686 v -4.16 h -22.04 v -8.24 h 23.64 v -4.16 h -28.96 v 28.16 h 5.32 v -11.6 z"
         style="font-family:Pirulen;-inkscape-font-specification:Pirulen"
         id="path650" />
      <path
         d="m 160.6436,692.42686 c 6.4,0 8.84,-2.76 8.84,-6.8 v -14.56 c 0,-4.04 -2.44,-6.8 -8.84,-6.8 h -18.6 c -6.4,0 -8.84,2.76 -8.84,6.8 v 14.56 c 0,4.04 2.44,6.8 8.84,6.8 z m 3.52,-6.76 c 0,1.68 -1.12,2.6 -3.52,2.6 h -18.6 c -2.4,0 -3.52,-0.92 -3.52,-2.6 v -14.64 c 0,-1.68 1.12,-2.6 3.52,-2.6 h 18.6 c 2.4,0 3.52,0.92 3.52,2.6 z"
         style="font-family:Pirulen;-inkscape-font-specification:Pirulen"
         id="path652" />
      <path
         d="m 206.92362,692.42686 -6.64,-12.64 c 5,-0.48 6.96,-3.08 6.96,-6.72 v -2 c 0,-4.04 -2.44,-6.8 -8.84,-6.8 h -23.92 v 28.16 h 5.32 v -12.56 h 14.84 l 6.6,12.56 z m -5,-19.32 c 0,1.68 -1.12,2.6 -3.52,2.6 h -18.6 v -7.28 h 18.6 c 2.4,0 3.52,0.92 3.52,2.6 z"
         style="font-family:Pirulen;-inkscape-font-specification:Pirulen"
         id="path654" />
      <path
         d="m 249.92365,692.42686 v -24 h 14.36 v -4.16 h -34.44 v 4.16 h 14.76 v 24 z"
         style="font-family:Pirulen;-inkscape-font-specification:Pirulen"
         id="path656" />
      <path
         d="m 301.52368,692.42686 v -28.16 h -5.32 v 11.2 h -23.04 v -11.2 h -5.32 v 28.16 h 5.32 v -12.8 h 23.04 v 12.8 z"
         style="font-family:Pirulen;-inkscape-font-specification:Pirulen"
         id="path658" />
      <path
         d="m 335.68369,692.42686 v -4.16 h -23.64 v -8.64 h 22.44 v -4.16 h -22.44 v -7.04 h 23.64 v -4.16 h -28.96 v 28.16 z"
         style="font-family:Pirulen;-inkscape-font-specification:Pirulen"
         id="path660" />
      <path
         d="m 398.8037,692.42686 -18.6,-28.16 h -3.88 l -18.72,28.16 h 5.92 l 14.76,-22.68 14.52,22.68 z"
         style="font-family:Pirulen;-inkscape-font-specification:Pirulen"
         id="path662" />
      <path
         d="m 432.72371,692.42686 v -4.16 h -22.68 c -2.4,0 -3.52,-0.92 -3.52,-2.6 v -14.64 c 0,-1.68 1.12,-2.6 3.52,-2.6 h 22.68 v -4.16 h -22.68 c -6.4,0 -8.84,2.76 -8.84,6.8 v 14.56 c 0,4.04 2.44,6.8 8.84,6.8 z"
         style="font-family:Pirulen;-inkscape-font-specification:Pirulen"
         id="path664" />
      <path
         d="m 470.88373,692.42686 v -28.16 h -5.32 v 11.2 h -23.04 v -11.2 h -5.32 v 28.16 h 5.32 v -12.8 h 23.04 v 12.8 z"
         style="font-family:Pirulen;-inkscape-font-specification:Pirulen"
         id="path666" />
      <path
         d="m 505.04373,692.42686 v -4.16 h -23.64 v -8.64 h 22.44 v -4.16 h -22.44 v -7.04 h 23.64 v -4.16 h -28.96 v 28.16 z"
         style="font-family:Pirulen;-inkscape-font-specification:Pirulen"
         id="path668" />
      <path
         d="m 542.00375,692.42686 -6.64,-12.64 c 5,-0.48 6.96,-3.08 6.96,-6.72 v -2 c 0,-4.04 -2.44,-6.8 -8.84,-6.8 h -23.92 v 28.16 h 5.32 v -12.56 h 14.84 l 6.6,12.56 z m -5,-19.32 c 0,1.68 -1.12,2.6 -3.52,2.6 h -18.6 v -7.28 h 18.6 c 2.4,0 3.52,0.92 3.52,2.6 z"
         style="font-family:Pirulen;-inkscape-font-specification:Pirulen"
         id="path670" />
      <path
         d="m 573.84375,692.42686 c 6.4,0 8.84,-2.76 8.84,-6.8 v -14.56 c 0,-4.04 -2.44,-6.8 -8.84,-6.8 h -18.6 c -6.4,0 -8.84,2.76 -8.84,6.8 v 14.56 c 0,4.04 2.44,6.8 8.84,6.8 z m 3.52,-6.76 c 0,1.68 -1.12,2.6 -3.52,2.6 h -18.6 c -2.4,0 -3.52,-0.92 -3.52,-2.6 v -14.64 c 0,-1.68 1.12,-2.6 3.52,-2.6 h 18.6 c 2.4,0 3.52,0.92 3.52,2.6 z"
         style="font-family:Pirulen;-inkscape-font-specification:Pirulen"
         id="path672" />
      <path
         d="m 624.96377,692.42686 v -28.16 h -4.64 v 20.92 l -28.04,-20.92 h -4.6 v 28.16 h 4.64 v -21.92 l 30.04,21.92 z"
         style="font-family:Pirulen;-inkscape-font-specification:Pirulen"
         id="path674" />
      <path
         d="m 653.24378,682.02686 c 6.4,0 8.84,-2.76 8.84,-6.8 v -4.16 c 0,-4.04 -2.44,-6.8 -8.84,-6.8 h -23.08 v 28.16 h 5.32 v -10.4 z m 3.52,-6.76 c 0,1.68 -1.12,2.6 -3.52,2.6 h -17.76 v -9.44 h 17.76 c 2.4,0 3.52,0.92 3.52,2.6 z"
         style="font-family:Pirulen;-inkscape-font-specification:Pirulen"
         id="path676" />
      <path
         d="m 698.2438,692.42686 -6.64,-12.64 c 5,-0.48 6.96,-3.08 6.96,-6.72 v -2 c 0,-4.04 -2.44,-6.8 -8.84,-6.8 h -23.92 v 28.16 h 5.32 v -12.56 h 14.84 l 6.6,12.56 z m -5,-19.32 c 0,1.68 -1.12,2.6 -3.52,2.6 h -18.6 v -7.28 h 18.6 c 2.4,0 3.52,0.92 3.52,2.6 z"
         style="font-family:Pirulen;-inkscape-font-specification:Pirulen"
         id="path678" />
      <path
         d="m 730.08384,692.42686 c 6.4,0 8.84,-2.76 8.84,-6.8 v -14.56 c 0,-4.04 -2.44,-6.8 -8.84,-6.8 h -18.6 c -6.4,0 -8.84,2.76 -8.84,6.8 v 14.56 c 0,4.04 2.44,6.8 8.84,6.8 z m 3.52,-6.76 c 0,1.68 -1.12,2.6 -3.52,2.6 h -18.6 c -2.4,0 -3.52,-0.92 -3.52,-2.6 v -14.64 c 0,-1.68 1.12,-2.6 3.52,-2.6 h 18.6 c 2.4,0 3.52,0.92 3.52,2.6 z"
         style="font-family:Pirulen;-inkscape-font-specification:Pirulen"
         id="path680" />
      <path
         d="m 748.84385,692.42686 c 6.24,0 8.8,-2.52 8.8,-6 v -22.16 h -5.32 v 22.16 c 0,1.24 -1.04,1.84 -3.48,1.84 h -7.72 v 4.16 z"
         style="font-family:Pirulen;-inkscape-font-specification:Pirulen"
         id="path682" />
      <path
         d="m 791.68384,692.42686 v -4.16 h -23.64 v -8.64 h 22.44 v -4.16 h -22.44 v -7.04 h 23.64 v -4.16 h -28.96 v 28.16 z"
         style="font-family:Pirulen;-inkscape-font-specification:Pirulen"
         id="path684" />
      <path
         d="m 827.52382,692.42686 v -4.16 h -22.68 c -2.4,0 -3.52,-0.92 -3.52,-2.6 v -14.64 c 0,-1.68 1.12,-2.6 3.52,-2.6 h 22.68 v -4.16 h -22.68 c -6.4,0 -8.84,2.76 -8.84,6.8 v 14.56 c 0,4.04 2.44,6.8 8.84,6.8 z"
         style="font-family:Pirulen;-inkscape-font-specification:Pirulen"
         id="path686" />
      <path
         d="m 850.40381,692.42686 v -24 h 14.36 v -4.16 h -34.44 v 4.16 h 14.76 v 24 z"
         style="font-family:Pirulen;-inkscape-font-specification:Pirulen"
         id="path688" />
    </g>
  </g>
</svg>
